<?xml version="1.0" encoding="UTF-8" standalone="no"?>
<svg
   width="760.92871pt"
   height="256.34375pt"
   viewBox="0 0 761.28193 257.10032"
   version="1.1"
   id="svg149"
   sodipodi:docname="logo.svg"
   inkscape:version="1.2.2 (b0a84865, 2022-12-01)"
   xmlns:inkscape="http://www.inkscape.org/namespaces/inkscape"
   xmlns:sodipodi="http://sodipodi.sourceforge.net/DTD/sodipodi-0.dtd"
   xmlns="http://www.w3.org/2000/svg"
   xmlns:svg="http://www.w3.org/2000/svg">
  <defs
     id="defs16" />
  <sodipodi:namedview
     id="namedview14"
     pagecolor="#ffffff"
     bordercolor="#000000"
     borderopacity="0.25"
     inkscape:showpageshadow="2"
     inkscape:pageopacity="0.0"
     inkscape:pagecheckerboard="0"
     inkscape:deskcolor="#d1d1d1"
     inkscape:document-units="pt"
     showgrid="false"
     inkscape:zoom="0.61458333"
     inkscape:cx="204.20339"
     inkscape:cy="345.76271"
     inkscape:window-width="1800"
     inkscape:window-height="1037"
     inkscape:window-x="0"
     inkscape:window-y="44"
     inkscape:window-maximized="0"
     inkscape:current-layer="svg149" />
  <g
     clip-path="url(#clip1)"
     clip-rule="nonzero"
     id="g74"
     transform="matrix(0.92383109,0,0,0.92383109,32.202886,12.358954)"
     style="display:inline;opacity:1;fill-rule:evenodd;stroke:#000000;stroke-width:8.82302649;stroke-linecap:butt;stroke-linejoin:bevel;stroke-dasharray:none;stroke-opacity:1;paint-order:markers stroke fill;fill:#ffffff;fill-opacity:1">
    <path
       style="fill:#ffffff;fill-opacity:1;fill-rule:evenodd;stroke:#000000;stroke-width:8.41590968;stroke-linecap:square;stroke-linejoin:miter;stroke-dasharray:none;stroke-opacity:1;paint-order:stroke markers fill;stroke-miterlimit:0"
       d="m 733.45312,138.28906 c 0,3.40625 -3.05859,7.63281 -9.16796,12.6836 -6.125,5.04687 -11.08985,7.57812 -14.92188,7.57812 -4.35547,0 -10.39062,-2.28516 -18.10156,-6.85937 -7.71485,-4.57813 -13.85938,-6.86329 -18.42578,-6.86329 -5.64063,0 -9.51563,0.64063 -11.64844,1.91407 -0.95703,0 -2.46875,0.95703 -4.54688,2.86718 -2.07421,1.92188 -3.26953,3.35547 -3.58593,4.3125 -0.32032,0.21875 -1.01563,1.16797 -2.07422,2.875 l -0.48438,0.31641 -0.63672,-0.31641 V 156 c 0,-3.30078 2.94922,-7.50391 8.85938,-12.60547 5.89453,-5.10547 10.92187,-7.65625 15.07422,-7.65625 4.46484,0 10.57812,2.28516 18.34375,6.85938 7.76562,4.57031 13.77344,6.86328 18.03125,6.86328 4.67578,0 8.07812,-0.26953 10.20703,-0.80078 2.33594,-2.02344 5.47656,-4.35938 9.41406,-7.01563 0.3125,-0.32031 0.57813,-0.91016 0.79688,-1.76172 0.63672,-0.74219 1.22265,-1.53125 1.7539,-2.39062 l 0.47657,-0.32032 0.63671,0.32032 z m 5.7461,13.40235 c 0,-27.54688 -10.28125,-45.89453 -30.84375,-55.039066 -5.85938,-2.65625 -11.82031,-3.988281 -17.89844,-3.988281 -15.23047,0 -27.00391,5.105468 -35.3125,15.312497 -7.5625,9.36328 -11.33984,21.80469 -11.33984,37.33203 0,16.05469 4.08984,29.88672 12.29687,41.48047 9.375,13.08203 21.78516,19.625 37.23438,19.625 15.33593,0 27.0625,-5.48047 35.15625,-16.4375 7.13281,-9.67578 10.70703,-22.4414 10.70703,-38.28515 z m 15.15234,-4.62891 c 0,18.83203 -5.95703,34.35547 -17.86328,46.58203 -11.91797,12.23047 -27.23047,18.34375 -45.94531,18.34375 -12.23047,0 -23.07813,-2.60156 -32.54297,-7.8125 -10.21094,-5.53125 -17.65625,-13.66797 -22.33594,-24.41016 -4.68359,-10.73828 -7.01953,-20.3125 -7.01953,-28.71484 0,-18.39844 5.90234,-33.66015 17.71094,-45.78125 11.80469,-12.128905 26.85156,-18.191405 45.14453,-18.191405 18.50781,0 33.55469,5.320313 45.14844,15.953125 11.80078,10.95703 17.70312,25.63281 17.70312,44.03125"
       id="path72" />
    <path
       style="opacity:1;fill:#ffffff;fill-opacity:1;fill-rule:evenodd;stroke:#000000;stroke-width:7.7748787;stroke-linecap:square;stroke-linejoin:miter;stroke-dasharray:none;stroke-opacity:1;paint-order:stroke markers fill;stroke-miterlimit:0"
       d="m 131.24408,192.59984 c -0.79031,4.76351 -1.37854,7.53861 -1.77188,8.3217 v 0.59183 l -0.2923,0.59182 v 0.58823 l -0.29593,0.44027 v 0.73978 c -2.74983,4.31963 -14.20029,6.48125 -34.340529,6.48125 -1.670836,0 -5.405856,-0.43665 -11.201452,-1.3244 C 67.32651,206.5764 54.901705,200.48128 46.056744,190.75218 36.822041,180.63335 32.202886,167.32079 32.202886,150.81814 c 0,-7.46643 1.916228,-15.82061 5.748683,-25.05892 8.642873,-20.72846 27.707715,-31.096302 57.180093,-31.096302 3.439105,0 9.877048,0.54131 19.310238,1.620317 10.21628,1.180046 15.96495,2.165229 17.24244,2.948328 0.29592,0.29591 0.44027,0.884127 0.44027,1.768267 0,0.58822 -0.12271,1.50122 -0.36809,2.72818 -0.2454,1.23058 -0.3681,2.08585 -0.3681,2.57663 0,4.42428 -0.2923,11.00658 -0.88413,19.75049 l -0.44026,0.58823 -0.44387,0.14796 -0.73619,-0.14796 c -0.19847,-2.15802 -0.58821,-4.95838 -1.18004,-8.40109 -1.47236,-4.61555 -3.46077,-7.97887 -5.96882,-10.09358 -2.50445,-2.1111 -6.26112,-3.90463 -11.27363,-5.38059 -5.60072,-1.67084 -11.544276,-2.50446 -17.834267,-2.50446 -16.802178,0 -29.032114,4.47842 -36.693416,13.43165 -6.979255,8.26396 -10.465274,20.95942 -10.465274,38.07916 0,10.03223 2.995234,19.47624 8.98931,28.33563 5.990467,8.85579 13.608465,15.30456 22.843166,19.33189 6.679732,2.8581 14.835428,4.28354 24.463481,4.28354 14.24721,0 22.99474,-4.39902 26.23536,-13.20429 0.58822,-2.37453 1.52288,-5.29399 2.80036,-8.75474 l 0.58822,-0.15156 0.44388,0.29952 0.29231,0.44026 0.29591,1.47236 c 0,1.08622 -0.39335,4.00567 -1.17644,8.77278"
       id="path58"
       transform="matrix(1.082449,0,0,1.082449,-34.85798,-13.377937)" />
    <path
       style="opacity:1;fill:#ffffff;fill-opacity:1;fill-rule:evenodd;stroke:#000000;stroke-width:7.7748787;stroke-linecap:square;stroke-linejoin:miter;stroke-dasharray:none;stroke-opacity:1;paint-order:stroke markers fill;stroke-miterlimit:0"
       d="m 197.43513,220.98239 c 0,7.27517 -1.13313,13.1682 -3.38858,17.68631 -0.98518,0.7867 -3.73502,1.18005 -8.25674,1.18005 h -7.51335 c -4.12837,0 -10.29566,-0.0722 -18.49827,-0.22013 -8.20261,-0.15157 -14.36991,-0.22013 -18.49467,-0.22013 -1.5734,0 -2.50445,-0.10104 -2.80036,-0.29592 l -0.14796,-0.59183 0.29231,-0.58822 c 1.5734,-0.0974 3.92989,-0.68565 7.07669,-1.76827 2.16162,-2.26266 3.24423,-11.98815 3.24423,-29.18368 v -63.5206 c -0.10465,-5.0089 -0.30313,-7.80565 -0.59904,-8.40109 -0.59544,-1.56619 -2.58384,-3.04214 -5.9652,-4.41706 -1.98841,-0.0974 -4.07425,-0.38975 -6.26113,-0.88414 l 0.15156,-0.88774 0.44027,-0.43666 c 0.88414,-0.19848 1.47596,-0.29953 1.76827,-0.29953 h 32.56865 c 0.29592,0 0.88775,0.10105 1.77188,0.29953 l 0.44027,0.43666 0.14795,0.44387 c 0,0.29591 -0.14795,0.5413 -0.43665,0.73617 -3.00967,0.59184 -5.97243,1.18005 -8.88105,1.77188 -1.74662,0.98519 -2.61992,4.86094 -2.61992,11.63811 v 53.79511 c 0,8.9424 0.14795,16.95014 0.44026,24.02322 0.29591,5.60073 1.67083,9.24192 4.12837,10.90554 2.06418,1.37853 6.38382,2.06058 12.96612,2.06058 6.8782,0 11.30249,-1.81158 13.26924,-5.44916 1.27387,-3.14319 2.50444,-6.28278 3.6845,-9.43319 l 0.58461,-0.14435 0.44387,0.14435 c 0.29591,0.29953 0.44387,0.83722 0.44387,1.62032"
       id="path60"
       transform="matrix(1.082449,0,0,1.082449,-34.85798,-13.377937)" />
    <path
       style="opacity:1;fill:#ffffff;fill-opacity:1;fill-rule:evenodd;stroke:#000000;stroke-width:7.7748787;stroke-linecap:square;stroke-linejoin:miter;stroke-dasharray:none;stroke-opacity:1;paint-order:stroke markers fill;stroke-miterlimit:0"
       d="m 290.89002,194.55215 -0.29591,0.58823 c -0.49078,0.19487 -2.30596,0.29591 -5.45276,0.29591 -0.88414,0 -3.48964,0.0469 -7.80927,0.14435 -3.73502,0.19848 -6.73386,0.24178 -8.99291,0.14796 -3.34529,-0.0974 -5.93995,-0.34644 -7.80927,-0.73979 l -0.14795,-0.59543 0.30674,-0.58823 c 0.50883,-0.29591 0.90939,-0.49439 1.21613,-0.59904 0.50884,-0.58823 0.76144,-1.37854 0.76144,-2.36732 0,-0.7867 -5.09189,-15.10247 -15.29372,-42.94732 -10.18741,-27.84484 -15.58244,-42.21114 -16.17066,-43.09528 l -0.58822,-0.44386 c -0.4944,0.39695 -0.83722,0.94187 -1.0321,1.62752 l -24.46348,73.78379 c -1.37852,4.13559 -2.06418,7.58552 -2.06418,10.34619 0,0.69287 0.44026,1.5301 1.3244,2.51528 2.25906,0.49078 4.61915,1.13313 7.07669,1.91983 v 0.89135 c -0.19848,0.0938 -0.88775,0.19487 -2.06419,0.29231 h -27.85567 c -1.37492,0 -2.20853,-0.0974 -2.50445,-0.29231 l -0.29591,-0.59183 0.44387,-0.59183 c 2.85089,-0.59182 5.69455,-1.13313 8.54544,-1.62752 2.06418,-0.68927 4.22581,-3.25146 6.48486,-7.68657 1.18005,-2.26267 3.92989,-9.40431 8.25313,-21.42494 l 27.4118,-75.653106 c 0.39335,-1.374921 1.37492,-3.298366 2.94833,-5.759509 h 0.58821 c 1.86932,2.259055 3.68811,5.893031 5.45638,10.905532 1.37131,3.929894 2.74984,7.809263 4.12476,11.641723 l 20.92334,54.23538 c 1.57339,4.42428 3.19731,8.79805 4.86454,13.12128 1.96314,5.3012 3.92628,9.57753 5.90386,12.81816 2.84005,4.81764 6.28638,7.6577 10.3101,8.54905 1.08622,0 2.16162,0.0469 3.24423,0.14796 1.67083,0.0938 2.55136,0.44026 2.6524,1.03208"
       id="path62"
       transform="matrix(1.082449,0,0,1.082449,-34.85798,-13.377937)" />
    <path
       style="opacity:1;fill:#ffffff;fill-opacity:1;fill-rule:evenodd;stroke:#000000;stroke-width:7.7748787;stroke-linecap:square;stroke-linejoin:miter;stroke-dasharray:none;stroke-opacity:1;paint-order:stroke markers fill;stroke-miterlimit:0"
       d="m 380.66764,123.03104 -0.15156,0.59182 -0.29591,0.29231 c -0.58823,0.19848 -2.25907,0.44026 -5.01251,0.73257 -1.86571,0.19848 -3.5582,1.10427 -5.08468,2.72457 -1.52288,1.62032 -4.3449,7.48449 -8.47327,17.59249 -5.79559,13.83221 -14.53951,34.63645 -26.23535,62.40551 -1.96314,4.70938 -3.87577,9.41875 -5.74147,14.12812 -2.36371,5.49608 -4.66967,9.96367 -6.92874,13.39555 l -0.88773,0.29592 c -1.17645,0 -2.94471,-2.94832 -5.30843,-8.84496 l -36.09798,-90.48853 c -1.38213,-3.43911 -2.6091,-5.79921 -3.6881,-7.0767 -1.47235,-1.56979 -3.78554,-2.99523 -6.92513,-4.27271 h -0.58822 l -0.44387,-0.2923 c -2.26266,0.19486 -3.98041,0 -5.16046,-0.59184 l -0.29231,-0.73617 0.29231,-0.44387 0.73617,-0.44388 c 0.19849,0 0.39335,0 0.59184,0 0.2923,0 0.49078,0 0.58822,0 h 32.27995 c 1.76467,0 2.99163,0.19848 3.6809,0.58822 l 0.2923,0.43665 -0.14074,0.58822 c -0.10465,0.19127 -1.35327,0.36448 -3.7675,0.51244 -2.40341,0.14435 -4.04537,0.89858 -4.93673,2.26627 -0.0974,0.2887 -0.14073,0.72536 -0.14073,1.31358 0,1.07179 1.31718,5.11716 3.96236,12.13611 l 28.26707,75.61702 c 22.42816,-54.24982 33.4528,-83.6789 33.05222,-88.29804 -0.2923,-0.58822 -0.5377,-1.12592 -0.73257,-1.62032 -0.49439,-0.49078 -0.88413,-0.83361 -1.18004,-1.03209 h -0.58823 c -0.68926,-0.3717 -1.74661,-0.53049 -3.17205,-0.48718 -1.42183,0.0469 -2.42867,-0.0216 -3.02411,-0.2093 l -0.43666,-0.69287 0.14796,-0.42223 0.59544,-0.415 c 0.87692,-0.18404 1.71053,-0.28148 2.49724,-0.28148 h 25.93583 c 0.29952,0 0.89135,0.10104 1.77549,0.29953 l 0.44026,0.2923 0.29952,0.44027"
       id="path64"
       transform="matrix(1.082449,0,0,1.082449,-34.85798,-13.377937)" />
    <path
       style="opacity:1;fill:#ffffff;fill-opacity:1;fill-rule:evenodd;stroke:#000000;stroke-width:7.7748787;stroke-linecap:square;stroke-linejoin:miter;stroke-dasharray:none;stroke-opacity:1;paint-order:stroke markers fill;stroke-miterlimit:0"
       d="m 432.01966,173.41592 c 0,9.43678 -3.44271,16.95374 -10.32453,22.55446 -6.38743,5.20377 -14.53951,7.80926 -24.46348,7.80926 -10.11523,0 -17.23884,-1.56978 -21.36721,-4.71298 l -0.44026,-0.88775 c -0.10104,-0.49078 -0.14796,-1.71774 -0.14796,-3.68449 0,-1.86571 0.1227,-4.64442 0.36809,-8.32891 0.2454,-3.6809 0.36809,-6.45961 0.36809,-8.3217 0.19487,-0.49078 0.39335,-0.88775 0.58822,-1.18366 l 0.58823,-0.14435 c 0.29591,0.10104 0.58822,0.24539 0.88413,0.44026 0.0974,1.86932 0.2923,4.07785 0.59544,6.63283 2.05336,10.02139 9.32492,15.0339 21.80746,15.0339 5.60073,0 10.5158,-1.79353 14.73439,-5.3806 4.22941,-3.58345 6.3369,-8.18095 6.3369,-13.78167 0,-7.75874 -3.68089,-15.12774 -11.04628,-22.10339 -6.88542,-5.89664 -13.75281,-11.74637 -20.63824,-17.53835 -7.36539,-7.369 -11.0535,-15.22878 -11.0535,-23.58295 0,-8.64288 2.69933,-15.44892 8.10879,-20.410899 5.39864,-4.961989 12.47894,-7.444785 21.21925,-7.444785 10.12244,0 17.19552,0.837222 21.22646,2.508063 l 0.29591,0.736173 v 0.588222 c 0,11.201456 -0.39335,17.292966 -1.18005,18.274536 l -0.44748,0.14796 -0.58822,-0.14796 c -0.19848,-0.19487 -0.39335,-0.49079 -0.58822,-0.88052 -0.29592,-0.98519 -0.49078,-2.45754 -0.58822,-4.4243 l -0.29592,-0.58822 v -0.59182 c -0.39335,-0.97796 -1.079,-2.35649 -2.06057,-4.124757 -3.63758,-4.22581 -9.83014,-6.336912 -18.57045,-6.336912 -11.30611,0 -16.95013,6.437952 -16.95013,19.306629 0,3.4391 2.3637,7.6613 7.07308,12.67381 2.74984,2.85089 7.66852,7.27156 14.73438,13.26563 6.68334,5.59712 11.10402,9.62806 13.26925,12.08198 2.16162,2.45753 4.66967,6.87821 7.51695,13.26203 0,0.98879 0.16961,2.51167 0.51243,4.57585 0.34644,2.06058 0.52327,3.63397 0.52327,4.70938"
       id="path66"
       transform="matrix(1.082449,0,0,1.082449,-34.85798,-13.377937)" />
    <path
       style="opacity:1;fill:#ffffff;fill-opacity:1;fill-rule:evenodd;stroke:#000000;stroke-width:7.7748787;stroke-linecap:square;stroke-linejoin:miter;stroke-dasharray:none;stroke-opacity:1;paint-order:stroke markers fill;stroke-miterlimit:0"
       d="m 434.00806,151.87549 c 0,-16.72639 0.25261,-26.53849 0.7434,-29.4399 l 0.29231,-0.50883 h 1.03208 l 0.29231,0.50883 0.29591,1.2811 c -0.19847,8.18817 1.77188,13.64816 5.89665,16.37996 2.26266,1.54092 6.38381,2.47196 12.37789,2.8184 l 18.7148,0.51244 V 53.061653 c 0,-22.002336 -1.22697,-33.694573 -3.6845,-35.062276 -0.88414,-0.346437 -2.00645,-1.032093 -3.38858,-2.049751 -3.4355,0 -5.74507,-0.346436 -6.92513,-1.024875 l -0.29952,-1.021266 0.14796,-1.021267 c 0.20208,-0.176827 0.93826,-0.342827 2.21214,-0.519655 h 32.57587 c 1.27388,0.176828 2.01367,0.342828 2.20853,0.519655 l 0.14796,1.021267 -0.2887,1.021266 c -1.55175,0.173219 -3.87937,1.194485 -6.98286,3.074626 -2.12914,3.926282 -3.19371,20.822286 -3.19371,50.684404 v 74.743709 c 18.21318,0 23.79587,0 16.74083,0 8.6176,-0.33561 14.58642,-2.07862 17.91727,-5.23625 1.56979,-4.31963 3.42467,-8.98208 5.57547,-13.96211 h 0.73617 c 0.30314,0.33922 0.44387,1.10787 0.44387,2.30596 0,2.04615 -0.56657,7.33652 -1.69248,15.86752 -1.12954,8.53101 -2.03893,13.64816 -2.72459,15.35509 h -0.74339 c -0.19487,0 -0.93105,-0.46913 -2.20853,-1.4074 -1.27388,-0.93466 -2.1111,-1.40379 -2.50807,-1.40379 -3.92628,-0.85166 -7.76234,-1.2811 -11.49014,-1.2811 h -20.04641 c 0.0974,7.84535 0.14435,15.69792 0.14435,23.54687 0.29591,10.24154 1.33161,17.57806 3.09988,22.01317 0.39336,1.19087 1.56979,1.91983 3.54016,2.17966 1.96314,0.25261 3.13957,0.54852 3.53292,0.89496 l 0.29231,1.02127 -0.14435,1.02848 c -0.19848,0.166 -0.93466,0.33922 -2.20853,0.50522 h -32.57587 c -1.27027,-0.166 -2.01005,-0.33922 -2.20854,-0.50522 l -0.15156,-1.02848 0.29231,-1.02127 c 1.17283,-0.68205 3.45353,-1.02487 6.86016,-1.02487 0.0974,0 1.21253,-0.67845 3.34889,-2.04975 2.63075,-1.53371 3.84689,-11.51902 3.64841,-29.94513 v -15.61491 h -27.55615 c -4.32324,0 -8.10878,0.85527 -11.3458,2.55858 -0.49079,0.16962 -0.7434,-1.27748 -0.7434,-4.3485"
       id="path68"
       transform="matrix(1.082449,0,0,1.082449,-34.85798,-13.377937)" />
    <path
       style="opacity:1;fill:#ffffff;fill-opacity:1;fill-rule:evenodd;stroke:#000000;stroke-width:7.7748787;stroke-linecap:square;stroke-linejoin:miter;stroke-dasharray:none;stroke-opacity:1;paint-order:stroke markers fill;stroke-miterlimit:0"
       d="m 581.75608,128.39719 c 0,-7.66491 -2.15801,-14.14977 -6.48486,-19.45458 -4.61916,-5.69456 -10.66014,-8.54545 -18.12657,-8.54545 -7.56387,0 -11.59481,0.68566 -12.0856,2.06058 v 49.5188 c 0,0.29591 0.15518,0.59544 0.44387,0.88774 3.04937,1.76827 8.40471,2.64518 16.06601,2.64518 13.4605,0 20.18715,-9.03622 20.18715,-27.11227 z m 137.95397,108.46715 -0.15518,0.44387 -0.58462,0.73979 c 0.19488,0.0938 -1.47596,0.4944 -5.00889,1.18005 -8.1593,1.66723 -15.62573,2.50084 -22.4029,2.50084 -23.39169,0 -44.12015,-6.77717 -62.19621,-20.33511 -3.44271,-2.35649 -8.30004,-6.14203 -14.59004,-11.35301 -16.01548,-16.30057 -32.56504,-32.86458 -49.66313,-49.65954 -0.19848,-0.0974 -6.539,-0.29591 -19.01793,-0.59543 l -0.58823,0.15156 -0.44387,0.59183 v 22.99113 c 0,12.57637 1.22697,19.30662 3.68811,20.19076 0.88413,0.19486 2.01367,0.59183 3.3922,1.17644 3.43549,0 5.74146,0.20208 6.92512,0.58822 l 0.2887,0.58822 -0.14074,0.58822 c -0.20209,0.10465 -0.93827,0.19848 -2.20854,0.30313 h -31.98404 c -1.27748,-0.10465 -2.01366,-0.19848 -2.20854,-0.30313 l -0.15517,-0.58822 0.30313,-0.58822 c 1.56258,-0.0974 3.92629,-0.68926 7.07309,-1.76466 2.15801,-2.26628 3.23702,-11.98816 3.23702,-29.18368 v -58.36375 c 0,-5.20377 -0.0469,-8.24953 -0.14075,-9.13727 -0.39696,-4.32324 -1.57701,-6.87461 -3.54015,-7.661297 -2.65601,-1.07901 -4.96198,-1.623923 -6.93234,-1.623923 -1.079,0 -1.71775,-0.04693 -1.91262,-0.144348 l -0.29591,-0.295922 0.14796,-0.884134 0.44747,-0.440261 c 0.88414,-0.198485 1.47236,-0.299524 1.76827,-0.299524 h 35.74072 c 23.82474,0 35.72989,9.433189 35.72989,28.299539 0,4.81403 -1.94871,10.75758 -5.86416,17.83428 -3.91185,7.07308 -7.99691,11.93041 -12.2552,14.59003 21.80747,22.6916 33.99049,35.3221 36.54185,37.87347 14.4493,13.75281 28.15159,23.97269 41.12131,30.65242 16.21396,8.44801 33.26153,12.68103 51.14271,12.68103 1.27749,0 3.24423,-0.24539 5.89665,-0.7434 2.64879,-0.49079 4.61193,-0.72896 5.89663,-0.72896 l 0.58823,-0.29952 h 1.6203 l 0.7398,0.44027 v 0.58821"
       id="path70"
       transform="matrix(1.082449,0,0,1.082449,-34.85798,-13.377937)" />
  </g>
  <path
     style="opacity:1;fill:#ffffff;fill-opacity:1;fill-rule:evenodd;stroke:#000000;stroke-width:3.7377492;stroke-linecap:square;stroke-linejoin:miter;stroke-dasharray:none;stroke-opacity:1;paint-order:markers stroke fill;stroke-miterlimit:0"
     d="m 329.60432,82.349986 -0.0361,0.144348 c -2.53332,3.435497 -5.29759,5.149637 -8.29283,5.149637 -1.21614,0 -2.93388,-0.375306 -5.14963,-1.129528 -0.0216,0.144348 -0.0361,0.411394 -0.0361,0.801135 0,5.846115 -0.0253,7.646865 -0.0721,5.405854 0.0469,2.728193 0.35366,4.33407 0.91301,4.821243 0.48718,0.245397 1.63114,0.425831 3.43189,0.548525 h 3.4355 c 2.02088,0 3.25145,-0.671219 3.68811,-2.010053 0.0505,-0.389746 0.19486,-0.898574 0.44026,-1.533708 l 0.14435,-0.03612 0.10826,0.03612 c 0.0758,0.07575 0.11187,0.220131 0.11187,0.44027 0,0.194864 -0.0866,0.815568 -0.25622,1.862093 -0.16961,1.046525 -0.2454,1.631144 -0.22014,1.753841 l -0.25621,0.54491 -0.29231,0.22013 c -0.38974,0.0757 -1.21613,0.11188 -2.4828,0.11188 -1.50844,0 -3.78193,-0.0216 -6.81325,-0.0577 -3.03132,-0.0361 -5.30121,-0.0541 -6.80965,-0.0541 -0.38973,0 -0.62069,-0.0252 -0.69648,-0.0721 l -0.0361,-0.14796 0.0758,-0.14435 c 0.38613,-0.0252 0.97074,-0.16961 1.75384,-0.43666 0.46191,-0.487172 0.73978,-2.522483 0.83722,-6.102328 0,-2.24102 0.0144,-4.467593 0.0361,-6.683343 -1.99561,-1.021267 -3.29836,-1.533705 -3.90824,-1.533705 -0.72896,0 -1.56978,0.472742 -2.51888,1.425443 0.31757,-1.364094 0.58461,-2.204926 0.80475,-2.522492 0.38974,-0.584612 1.16922,-0.876918 2.33484,-0.876918 0.44026,0 1.5337,0.378915 3.28753,1.133137 0,-1.703314 0,-3.395801 0,-5.077463 -0.0469,-3.092669 -0.20569,-4.832069 -0.47274,-5.22181 -0.27065,-0.389741 -0.79753,-0.635134 -1.59144,-0.728961 -0.79023,-0.09745 -1.18719,-0.158801 -1.18719,-0.184062 l 0.0397,-0.220132 0.10826,-0.108261 c 0.43665,-0.09743 1.0357,-0.122696 1.78993,-0.07218 1.1187,0.07218 1.71774,0.108261 1.78992,0.108261 h 8.365 c 1.55897,0 2.56941,-0.133522 3.03132,-0.400567 l 0.18404,0.108262 0.0361,0.108261 c -0.0758,0.682048 -0.15879,1.107875 -0.25622,1.281094 0,2.042533 -0.14795,3.154017 -0.44026,3.323626 h -0.22013 c -0.0469,-0.05052 -0.083,-0.126304 -0.10827,-0.22374 -0.0252,-0.09744 -0.0541,-0.270654 -0.0902,-0.516046 -0.0361,-0.245393 -0.0433,-0.433046 -0.018,-0.555742 l -0.0722,-0.11187 c -0.12269,-0.884135 -1.08622,-1.439878 -2.88697,-1.663618 -0.46192,-0.04691 -1.76467,-0.07218 -3.90824,-0.07218 -0.72896,0 -1.09705,0.07218 -1.09705,0.220132 v 10.916363 c 2.80036,0.808352 4.59029,1.20892 5.36977,1.20892 2.85088,0 5.11355,-0.790309 6.79521,-2.374535 0.16961,-0.241783 0.45109,-0.570177 0.84083,-0.985179 0.0216,-0.04691 0.0722,-0.09744 0.14435,-0.147957 l 0.11187,-0.108262 0.10826,0.07218 0.0722,0.11187 c -0.0252,0.09744 -0.0108,0.180436 0.0361,0.256219"
     id="path76" />
  <path
     style="opacity:1;fill:#ffffff;fill-opacity:1;fill-rule:evenodd;stroke:#000000;stroke-width:3.7377492;stroke-linecap:square;stroke-linejoin:miter;stroke-dasharray:none;stroke-opacity:1;paint-order:markers stroke fill;stroke-miterlimit:0"
     d="m 349.54969,94.803664 c 0,1.80075 -0.28148,3.262278 -0.84083,4.384589 -0.24539,0.19487 -0.92743,0.29231 -2.04614,0.29231 h -1.8621 c -1.02487,0 -2.55136,-0.0216 -4.58667,-0.0577 -2.03171,-0.0361 -3.55819,-0.0541 -4.58307,-0.0541 -0.38974,0 -0.6207,-0.0252 -0.69288,-0.0721 l -0.0361,-0.14796 0.0722,-0.14435 c 0.38975,-0.0252 0.97436,-0.16961 1.75384,-0.43666 0.5341,-0.559342 0.80475,-2.97358 0.80475,-7.235472 V 75.590862 c -0.0253,-1.241398 -0.0758,-1.934271 -0.14796,-2.082229 -0.14796,-0.389741 -0.64235,-0.754221 -1.47957,-1.09344 -0.4944,-0.02526 -1.01044,-0.09744 -1.55175,-0.220132 l 0.0361,-0.220132 0.10826,-0.108261 c 0.22013,-0.05052 0.3681,-0.07218 0.44026,-0.07218 h 8.0727 c 0.0722,0 0.22013,0.02165 0.43666,0.07218 l 0.10826,0.108261 0.0397,0.108262 c 0,0.07578 -0.0397,0.137131 -0.10827,0.184044 -0.74701,0.147958 -1.47957,0.292307 -2.20131,0.436655 -0.43305,0.245393 -0.64957,1.208919 -0.64957,2.886972 v 13.334206 c 0,2.215744 0.0361,4.20054 0.10826,5.950766 0.0758,1.389358 0.415,2.291535 1.02487,2.702926 0.50883,0.342834 1.58062,0.51244 3.21176,0.51244 1.70332,0 2.80037,-0.451088 3.28754,-1.349662 0.31757,-0.779482 0.62069,-1.558965 0.913,-2.338447 l 0.14796,-0.03612 0.10826,0.03612 c 0.0721,0.07215 0.11187,0.2057 0.11187,0.400573"
     id="path78" />
</svg>
